<svg width="100%" height="100%" viewBox="0 0 109 24" fill="none" xmlns="http://www.w3.org/2000/svg">
    <path d="M102.994 9.78125H109L108.259 14.127H102.278L101.292 20.1162H96.9482L97.9346 14.127H91.9307L91.166 9.78125H98.6504L99.6387 3.78125H103.982L102.994 9.78125Z" fill="white"/>
    <path d="M102.994 9.78125H109L108.259 14.127H102.278L101.292 20.1162H96.9482L97.9346 14.127H91.9307L91.166 9.78125H98.6504L99.6387 3.78125H103.982L102.994 9.78125Z" fill="url(#gradient"/>
    <path d="M72.9525 23.6179H67.2744L79.1209 0.256653H86.0646L90.1579 23.6179H84.4798L81.7776 5.86882H81.5951L72.9525 23.6179ZM73.9331 14.424H86.5207L85.8138 18.5076H73.2262L73.9331 14.424Z" fill="white"/>
    <path d="M54.6822 23.6179H46.108L49.9847 0.256653H58.3422C60.7062 0.256653 62.6711 0.739543 64.237 1.70532C65.8028 2.6635 66.9088 4.03612 67.5549 5.82319C68.2086 7.60266 68.3302 9.72814 67.9198 12.1996C67.5245 14.5951 66.734 16.6445 65.5482 18.3479C64.3624 20.0513 62.8459 21.3555 60.9988 22.2605C59.1593 23.1654 57.0538 23.6179 54.6822 23.6179ZM52.1396 19.1008H54.9901C56.3811 19.1008 57.6049 18.846 58.6615 18.3365C59.718 17.8194 60.5884 17.0133 61.2725 15.9182C61.9642 14.8232 62.4545 13.3973 62.7433 11.6407C63.017 9.98289 63.0018 8.65209 62.6977 7.64829C62.3937 6.63688 61.8084 5.90684 60.9418 5.45817C60.0753 5.0019 58.9427 4.77376 57.5441 4.77376H54.5226L52.1396 19.1008Z" fill="white"/>
    <path d="M44.5508 12.3422C44.1328 14.8517 43.308 16.9734 42.0766 18.7072C40.8452 20.4411 39.344 21.7567 37.5729 22.654C35.8094 23.5513 33.9167 24 31.8948 24C29.7513 24 27.9042 23.5209 26.3535 22.5627C24.8029 21.597 23.6779 20.2015 22.9786 18.3764C22.2792 16.5437 22.1462 14.327 22.5795 11.7262C22.99 9.21673 23.8109 7.09126 25.0423 5.34981C26.2737 3.60076 27.7787 2.27376 29.5574 1.36882C31.3361 0.456274 33.244 0 35.2811 0C37.4095 0 39.2452 0.486692 40.7882 1.46008C42.3389 2.42586 43.4601 3.8289 44.1518 5.6692C44.8511 7.50951 44.9841 9.73384 44.5508 12.3422ZM39.2718 11.7262C39.5226 10.1901 39.5188 8.89734 39.2604 7.84791C39.0019 6.79848 38.5155 6.0038 37.8009 5.46388C37.094 4.92395 36.1895 4.65399 35.0873 4.65399C33.8635 4.65399 32.7537 4.95818 31.758 5.56654C30.7698 6.1673 29.9375 7.04183 29.261 8.19011C28.5845 9.3308 28.117 10.7148 27.8585 12.3422C27.5849 13.8859 27.5811 15.1787 27.8471 16.2205C28.1208 17.2548 28.6187 18.0342 29.3408 18.5589C30.0705 19.0837 30.9826 19.346 32.0772 19.346C33.2858 19.346 34.3842 19.0494 35.3724 18.4563C36.3605 17.8631 37.189 17 37.858 15.8669C38.5345 14.7338 39.0057 13.3536 39.2718 11.7262Z" fill="white"/>
    <path d="M0 23.6806L3.87663 0.319397H9.15568L7.50241 10.403H7.81026L17.5246 0.319397H23.807L13.648 10.7681L20.0558 23.6806H13.7392L9.22409 14.2928L6.37363 17.2243L5.27905 23.6806H0Z" fill="white"/>
<defs>
<linearGradient id="gradient" x1="109" y1="11.9487" x2="91.166" y2="11.9487" gradientUnits="userSpaceOnUse">
    <stop stop-color="#26D07C"/>
    <stop offset="1" stop-color="#26D07C" stop-opacity="0"/>
</linearGradient>
</defs>
</svg>
